<svg fill="currentColor" id="svg" version="1.1" xmlns="http://www.w3.org/2000/svg" xmlns:xlink="http://www.w3.org/1999/xlink" width="400" height="230" viewBox="0, 0, 400,230"><g id="svgg"><path id="path0" d="M94.882 11.973 C 77.096 13.406,64.820 16.195,51.820 21.756 C 27.199 32.287,13.473 46.861,10.677 65.440 C 8.618 79.122,14.169 103.242,25.578 130.190 C 28.611 137.352,35.629 150.222,42.033 160.365 C 43.482 162.660,49.152 170.658,52.169 174.663 C 55.756 179.425,64.290 189.395,68.907 194.217 C 71.554 196.982,73.915 199.499,74.153 199.810 C 74.961 200.865,81.988 207.292,84.873 209.614 C 103.090 224.275,116.766 223.072,136.473 205.075 C 158.468 184.988,178.372 157.161,190.672 129.300 C 196.731 115.577,202.710 97.360,204.121 88.327 C 204.447 86.239,204.867 83.660,205.056 82.594 C 205.954 77.506,205.954 68.495,205.054 63.754 C 199.883 36.495,174.023 19.974,125.589 12.989 C 119.129 12.057,101.203 11.464,94.882 11.973 M92.720 29.382 C 93.836 30.321,101.065 47.750,104.215 57.095 C 105.445 60.746,104.303 62.499,99.978 63.597 C 94.267 65.045,92.195 64.331,91.553 60.692 C 90.676 55.716,89.792 30.952,90.449 29.751 C 91.089 28.582,91.659 28.489,92.720 29.382 M130.115 29.784 C 130.836 30.289,131.186 32.078,131.005 34.333 C 130.725 37.810,129.266 53.893,128.913 57.389 C 128.136 65.094,126.885 66.057,120.103 64.171 C 113.815 62.421,113.820 61.987,120.295 46.924 C 126.539 32.398,127.648 30.172,128.891 29.670 C 129.566 29.398,129.564 29.398,130.115 29.784 M62.910 41.581 C 63.995 42.132,75.821 54.772,82.371 62.382 C 85.729 66.283,85.255 68.169,80.079 71.497 C 75.748 74.283,73.866 73.880,71.782 69.722 C 70.575 67.315,62.747 49.917,61.482 46.830 C 59.505 42.007,60.020 40.116,62.910 41.581 M39.857 64.426 C 41.252 64.896,53.135 70.598,61.649 74.883 C 68.641 78.401,69.321 79.764,66.339 84.275 C 63.284 88.895,61.583 89.835,58.978 88.340 C 56.980 87.195,38.353 69.065,36.997 66.947 C 35.433 64.504,36.719 63.369,39.857 64.426 M114.363 67.158 C 126.288 68.925,134.323 72.524,142.651 79.830 C 152.377 88.361,158.235 99.368,159.855 112.156 C 160.717 118.955,160.776 119.161,164.315 127.697 C 167.752 135.989,167.794 136.117,167.791 138.470 C 167.786 142.334,166.266 144.186,161.297 146.382 C 156.194 148.637,156.174 148.678,155.932 157.677 C 155.621 169.238,155.419 170.716,153.715 173.961 C 150.582 179.930,143.607 182.034,132.106 180.481 C 126.516 179.727,126.341 179.818,125.501 183.928 C 124.734 187.680,122.829 189.801,119.264 190.869 C 117.805 191.307,93.323 191.556,89.164 191.176 C 81.385 190.465,80.056 188.164,80.048 175.388 C 80.042 164.917,79.985 164.658,77.099 161.904 C 61.466 146.988,55.406 130.332,58.794 111.593 C 62.132 93.131,71.628 80.130,87.982 71.631 C 95.158 67.901,106.452 65.986,114.363 67.158 M279.481 82.222 C 274.603 83.150,270.862 86.586,269.706 91.202 C 268.589 95.662,268.585 106.999,269.698 111.395 C 271.227 117.432,275.783 120.578,283.036 120.605 C 290.557 120.633,295.198 117.324,296.891 110.725 C 297.493 108.383,297.489 94.284,296.886 91.915 C 295.002 84.505,287.996 80.603,279.481 82.222 M321.790 82.562 C 314.411 84.119,311.903 88.878,311.903 101.323 C 311.903 114.939,314.930 119.635,324.209 120.419 C 327.546 120.700,331.696 119.727,332.347 118.511 C 332.844 117.583,332.026 117.539,329.247 118.344 C 318.484 121.463,312.904 112.709,314.673 95.476 C 315.582 86.617,321.755 82.075,329.466 84.592 C 331.895 85.384,332.939 85.241,332.378 84.192 C 331.453 82.463,326.137 81.645,321.790 82.562 M232.622 82.912 C 230.962 83.634,231.052 82.571,231.052 101.438 C 231.052 119.864,231.035 119.609,232.317 119.609 C 233.365 119.609,233.573 118.703,233.714 113.525 C 233.896 106.839,234.490 105.428,237.830 103.742 C 239.685 102.805,239.687 102.714,237.874 101.801 C 234.817 100.261,233.941 98.560,233.757 93.806 C 233.516 87.575,234.955 85.013,239.470 83.635 L 241.151 83.121 238.933 82.849 C 236.028 82.492,233.531 82.517,232.622 82.912 M241.875 83.237 C 241.995 83.347,242.860 83.621,243.797 83.846 C 250.816 85.527,254.340 91.339,251.709 96.894 C 250.517 99.410,249.227 100.275,244.451 101.762 C 241.280 102.749,241.257 102.795,243.364 103.856 C 246.513 105.442,247.170 106.321,250.506 113.423 C 253.236 119.235,253.990 120.215,254.978 119.227 C 255.708 118.497,255.445 117.641,252.814 112.183 C 249.291 104.874,249.287 102.952,252.789 99.252 C 258.026 93.720,255.641 85.302,248.294 83.388 C 246.835 83.008,241.488 82.882,241.875 83.237 M348.633 83.333 C 347.822 83.950,347.786 84.713,347.787 101.510 C 347.788 119.431,347.800 119.609,349.012 119.609 C 350.021 119.609,350.194 118.857,350.356 113.777 C 350.558 107.424,351.075 105.679,353.058 104.667 C 355.862 103.237,357.830 104.397,362.564 110.271 C 370.195 119.740,371.143 120.634,371.948 119.130 C 372.391 118.303,371.266 116.573,367.099 111.673 C 358.670 101.762,358.633 101.140,365.922 91.472 C 370.139 85.878,370.856 84.734,370.744 83.766 C 370.543 82.024,368.777 83.330,366.058 87.231 C 358.392 98.233,357.334 99.367,354.734 99.367 C 351.539 99.367,350.560 97.117,350.338 89.254 C 350.257 86.404,350.110 83.942,350.011 83.785 C 349.673 83.249,349.024 83.036,348.633 83.333 M287.524 84.961 C 293.239 87.291,295.199 92.290,294.799 103.517 C 294.566 110.045,293.637 113.036,291.098 115.438 C 285.553 120.682,276.130 119.119,272.948 112.428 C 270.552 107.390,270.550 95.320,272.944 90.237 C 275.285 85.266,282.165 82.776,287.524 84.961 M29.442 91.677 C 38.640 92.741,54.573 95.207,55.624 95.729 C 57.946 96.882,58.274 98.900,56.850 103.279 C 54.955 109.104,53.617 109.451,46.361 105.999 C 26.724 96.659,22.631 94.360,22.812 92.777 C 22.976 91.338,24.431 91.097,29.442 91.677 " stroke="none" fill="#fc5b73" fill-rule="evenodd"></path><path id="path1" d="M91.139 28.906 C 89.844 29.427,89.772 32.940,90.726 49.109 C 91.524 62.655,91.601 63.026,93.807 64.002 C 96.340 65.122,103.284 63.206,104.277 61.113 C 105.148 59.277,105.231 59.561,99.600 44.968 C 93.726 29.747,92.908 28.194,91.139 28.906 M128.891 29.670 C 127.648 30.172,126.539 32.398,120.295 46.924 C 113.820 61.987,113.815 62.421,120.103 64.171 C 126.885 66.057,128.136 65.094,128.913 57.389 C 129.266 53.893,130.725 37.810,131.005 34.333 C 131.186 32.078,130.836 30.289,130.115 29.784 C 129.564 29.398,129.566 29.398,128.891 29.670 M60.707 41.421 C 59.586 42.542,60.051 43.880,66.707 58.654 C 72.784 72.144,73.001 72.528,74.879 73.148 C 77.665 74.068,84.416 69.347,84.416 66.479 C 84.416 64.520,84.577 64.726,73.904 52.971 C 63.004 40.967,62.021 40.107,60.707 41.421 M216.101 60.829 C 213.743 61.696,213.561 63.922,215.756 65.053 C 218.354 66.392,221.646 64.515,220.719 62.224 C 220.172 60.872,217.872 60.178,216.101 60.829 M238.183 60.593 C 238.056 60.645,237.572 60.750,237.107 60.828 C 234.475 61.267,234.027 64.089,236.420 65.157 C 240.595 67.021,246.769 64.679,244.861 61.956 C 244.165 60.962,239.574 60.025,238.183 60.593 M262.680 60.634 C 259.893 61.152,258.598 62.934,259.952 64.387 C 261.588 66.143,267.739 66.140,269.218 64.383 C 271.167 62.067,267.201 59.793,262.680 60.634 M286.907 60.720 C 284.336 61.268,283.247 62.973,284.564 64.387 C 286.247 66.193,292.949 66.068,293.942 64.212 C 295.249 61.771,291.261 59.792,286.907 60.720 M311.241 60.728 C 308.821 61.240,307.700 63.214,309.107 64.487 C 311.006 66.205,317.590 66.013,318.554 64.212 C 319.914 61.671,315.874 59.747,311.241 60.728 M336.285 60.649 C 333.473 61.098,332.294 62.763,333.648 64.372 C 335.405 66.461,342.380 66.069,343.316 63.829 C 344.281 61.519,340.774 59.932,336.285 60.649 M360.897 60.638 C 357.248 61.347,356.543 64.436,359.821 65.356 C 364.371 66.631,369.161 64.652,367.778 62.068 C 367.216 61.019,363.217 60.188,360.897 60.638 M383.975 60.735 C 382.123 61.301,381.533 63.235,382.820 64.522 C 384.970 66.672,389.357 65.050,388.491 62.426 C 388.037 61.049,385.750 60.193,383.975 60.735 M36.854 64.303 C 35.107 65.526,36.178 66.824,49.662 79.819 C 61.433 91.164,61.732 91.243,66.339 84.275 C 69.321 79.764,68.641 78.401,61.649 74.883 C 42.377 65.184,38.163 63.386,36.854 64.303 M23.692 91.720 C 20.591 93.269,23.654 95.198,46.361 105.999 C 53.617 109.451,54.955 109.104,56.850 103.279 C 59.194 96.072,58.833 95.810,43.548 93.616 C 26.616 91.184,25.060 91.036,23.692 91.720 M219.055 133.395 C 217.735 133.719,216.830 134.422,216.226 135.596 L 215.641 136.733 215.569 154.105 C 215.483 174.843,215.501 174.983,218.257 175.725 C 221.779 176.674,222.656 174.554,222.658 165.084 C 222.661 156.025,223.011 153.628,224.425 152.984 C 225.634 152.433,226.643 153.446,228.755 157.332 C 232.989 165.123,236.786 165.194,240.828 157.556 C 243.371 152.750,245.636 151.592,246.617 154.597 C 246.770 155.069,246.932 158.736,247.026 163.887 L 247.181 172.398 247.779 173.704 C 249.165 176.727,253.009 176.338,253.913 173.083 C 254.248 171.874,254.270 137.806,253.935 136.603 C 253.338 134.454,251.751 133.287,249.454 133.307 C 246.295 133.336,245.268 134.502,241.047 142.854 C 237.386 150.097,236.619 151.121,234.848 151.121 C 233.077 151.121,232.309 150.097,228.648 142.854 C 224.265 134.183,222.589 132.529,219.055 133.395 M318.233 133.410 C 312.058 134.526,308.245 139.044,308.227 145.265 C 308.212 150.511,310.965 153.687,318.919 157.601 C 326.005 161.088,328.005 163.632,326.414 167.134 C 324.855 170.568,320.485 170.895,314.618 168.015 C 310.600 166.043,307.993 166.509,307.993 169.197 C 307.993 174.940,320.973 178.519,328.644 174.891 C 335.332 171.728,336.820 162.351,331.492 156.938 C 329.855 155.274,328.213 154.240,323.762 152.067 C 316.484 148.514,314.484 145.611,316.958 142.195 C 318.911 139.498,322.428 139.273,327.430 141.523 C 331.181 143.211,333.755 142.536,333.755 139.863 C 333.755 135.680,325.248 132.143,318.233 133.410 M373.088 133.614 C 364.012 135.617,361.144 141.211,361.423 156.368 C 361.597 165.844,362.532 168.984,366.229 172.509 C 372.323 178.322,386.917 177.250,387.523 170.945 C 387.779 168.285,385.926 167.639,381.829 168.960 C 375.172 171.105,370.658 169.027,369.009 163.058 C 368.413 160.902,368.406 148.725,369.000 146.582 C 370.651 140.615,374.827 138.605,381.333 140.644 C 385.780 142.039,387.787 141.404,387.526 138.686 C 387.143 134.701,379.820 132.129,373.088 133.614 M267.625 134.059 C 267.005 134.350,266.517 134.821,266.130 135.503 L 265.555 136.515 265.555 149.971 C 265.555 165.196,265.570 165.362,267.332 168.882 C 269.800 173.811,274.535 176.252,281.656 176.265 C 290.429 176.282,295.792 172.429,297.447 164.922 C 298.444 160.395,298.324 137.792,297.291 135.615 C 296.042 132.982,292.813 133.104,291.432 135.837 L 290.857 136.975 290.720 149.511 C 290.575 162.807,290.555 163.050,289.415 165.279 C 286.491 170.999,276.838 171.033,273.925 165.334 C 272.750 163.037,272.736 162.861,272.591 149.511 C 272.460 137.366,272.440 136.942,271.967 135.919 C 271.083 134.008,269.333 133.259,267.625 134.059 M346.043 134.093 C 345.447 134.396,344.903 134.923,344.548 135.542 L 343.991 136.515 343.991 154.687 C 343.991 172.399,344.002 172.881,344.451 173.775 C 345.778 176.421,349.155 176.387,350.389 173.714 L 350.891 172.628 350.891 154.802 L 350.891 136.975 350.316 135.837 C 349.312 133.849,347.767 133.219,346.043 134.093 " stroke="none" fill="#262626" fill-rule="evenodd"></path><path id="path2" d="M0.000 115.009 L 0.000 230.017 200.000 230.017 L 400.000 230.017 400.000 115.009 L 400.000 0.000 200.000 0.000 L 0.000 0.000 0.000 115.009 M114.668 8.288 C 123.048 8.830,133.400 10.276,141.881 12.092 C 173.012 18.754,192.316 29.742,202.376 46.525 C 204.921 50.772,204.923 50.775,207.212 57.537 L 209.264 63.600 209.401 70.234 C 209.551 77.546,209.491 78.296,208.043 87.149 C 205.381 103.425,196.930 126.636,186.657 145.890 C 168.228 180.429,136.283 215.569,117.738 221.704 C 101.002 227.240,88.780 220.902,63.026 193.329 C 61.254 191.433,53.368 182.086,50.120 178.033 C 48.459 175.960,39.855 163.829,38.538 161.702 C 26.040 141.521,19.455 127.393,13.343 107.648 C 12.345 104.422,11.306 100.903,11.034 99.827 C 5.614 78.356,5.145 68.282,9.020 56.610 C 17.217 31.922,49.335 12.734,89.132 8.748 C 96.195 8.041,107.649 7.835,114.668 8.288 M220.900 59.321 C 223.041 60.373,223.934 62.813,222.911 64.817 C 220.997 68.568,213.477 68.363,211.611 64.510 C 209.785 60.737,216.335 57.079,220.900 59.321 M244.853 59.197 C 249.024 61.017,248.542 65.942,244.064 67.258 C 242.360 67.759,237.686 67.759,235.982 67.258 C 231.185 65.848,231.120 60.523,235.883 59.024 C 237.526 58.507,243.537 58.623,244.853 59.197 M268.545 59.009 C 272.980 60.164,273.650 64.895,269.655 66.850 C 267.930 67.694,263.302 67.928,260.829 67.297 C 255.526 65.943,255.650 60.167,261.009 58.905 C 262.489 58.556,267.047 58.619,268.545 59.009 M293.764 59.211 C 295.565 59.868,297.216 62.084,296.839 63.339 C 296.796 63.483,296.698 63.887,296.621 64.238 C 295.670 68.569,283.665 68.944,281.856 64.700 C 280.902 62.460,282.283 59.762,284.701 59.142 C 285.177 59.019,285.773 58.866,286.026 58.801 C 287.093 58.527,292.704 58.824,293.764 59.211 M318.459 59.198 C 322.415 60.921,322.253 65.762,318.191 67.198 C 316.777 67.698,310.479 67.626,309.100 67.094 C 305.594 65.741,305.072 61.182,308.239 59.566 C 310.209 58.562,316.478 58.336,318.459 59.198 M343.186 59.258 C 347.436 61.186,346.583 66.427,341.860 67.408 C 334.388 68.959,328.378 65.254,331.310 60.904 C 332.744 58.775,339.926 57.780,343.186 59.258 M367.615 59.215 C 371.356 60.582,371.534 64.969,367.923 66.816 C 366.045 67.776,359.972 67.879,358.030 66.984 C 353.796 65.032,354.379 60.264,359.012 58.964 C 360.573 58.526,366.174 58.689,367.615 59.215 M388.563 59.312 C 391.907 60.955,391.914 65.216,388.576 66.849 C 383.624 69.271,377.834 65.246,380.204 61.029 C 381.493 58.736,385.652 57.881,388.563 59.312 M103.430 70.737 C 73.193 74.394,54.109 107.066,64.528 137.338 C 67.160 144.986,71.489 151.453,78.298 157.907 C 83.752 163.076,83.533 162.418,83.716 174.238 C 83.939 188.658,82.377 187.579,103.048 187.579 C 119.264 187.579,118.784 187.627,120.410 185.828 C 121.401 184.731,121.602 184.243,122.057 181.831 C 123.055 176.533,124.672 175.774,132.835 176.769 C 143.071 178.017,148.215 176.653,150.534 172.077 C 151.638 169.898,151.813 168.546,152.053 160.322 C 152.444 146.878,152.810 146.031,159.440 143.195 C 162.762 141.775,164.002 140.409,164.002 138.173 C 164.002 136.632,163.774 135.972,160.482 128.005 C 157.284 120.264,157.046 119.429,156.303 113.399 C 153.008 86.651,129.393 67.596,103.430 70.737 M287.286 78.464 C 292.903 79.343,297.965 83.572,299.835 88.949 C 302.007 95.195,301.767 109.490,299.400 114.841 C 293.848 127.396,273.209 127.947,267.318 115.699 C 264.070 108.945,264.080 93.556,267.338 86.947 C 270.627 80.272,278.215 77.046,287.286 78.464 M330.190 78.770 C 336.821 80.564,339.970 86.173,335.890 88.922 C 334.398 89.928,333.061 89.851,328.925 88.524 C 321.199 86.044,318.337 89.559,318.348 101.512 C 318.360 113.556,321.387 116.793,330.036 114.008 C 334.819 112.468,337.665 113.556,337.665 116.925 C 337.665 123.964,323.615 126.987,315.542 121.684 C 309.672 117.828,308.062 112.961,308.289 99.763 C 308.442 90.829,308.992 88.438,311.798 84.506 C 315.376 79.492,323.495 76.960,330.190 78.770 M372.885 79.025 C 374.402 79.809,375.301 81.680,375.076 83.583 C 374.856 85.435,373.843 87.148,369.636 92.784 C 363.059 101.593,363.054 101.030,369.771 109.081 C 374.440 114.678,375.103 115.549,375.765 116.964 C 377.802 121.313,373.843 125.439,369.577 123.414 C 368.136 122.731,366.825 121.385,362.786 116.443 C 357.959 110.536,357.060 109.665,355.885 109.762 C 354.487 109.878,354.234 110.692,354.028 115.745 C 353.871 119.592,353.805 120.066,353.257 121.260 C 351.581 124.910,346.651 124.903,344.856 121.247 L 344.221 119.954 344.221 101.323 L 344.221 82.691 344.876 81.357 C 345.819 79.436,346.881 78.781,349.051 78.781 C 352.705 78.781,353.743 80.471,354.022 86.875 C 354.401 95.537,355.521 95.604,361.400 87.316 C 367.499 78.718,369.499 77.274,372.885 79.025 M245.121 78.912 C 253.916 79.892,258.554 84.205,259.152 91.958 C 259.426 95.511,258.513 98.418,256.246 101.208 C 253.591 104.476,253.599 105.109,256.364 110.915 C 260.299 119.178,260.413 121.742,256.925 123.521 C 253.558 125.239,251.278 123.528,248.031 116.849 C 246.832 114.382,245.582 111.817,245.254 111.150 C 243.984 108.567,242.092 107.190,240.231 107.492 C 237.976 107.858,237.390 109.095,237.381 113.514 C 237.373 117.416,237.072 120.248,236.557 121.266 C 234.615 125.107,229.751 124.885,227.901 120.871 L 227.372 119.724 227.372 101.553 C 227.372 80.416,227.254 81.282,230.357 79.634 C 232.110 78.704,239.859 78.325,245.121 78.912 M239.277 88.245 C 237.501 89.121,236.674 94.182,237.953 96.353 C 239.818 99.520,247.020 98.332,248.429 94.625 C 249.977 90.552,243.606 86.111,239.277 88.245 M280.313 88.440 C 278.153 89.264,276.523 91.043,275.781 93.387 C 274.477 97.504,274.776 107.738,276.286 110.706 C 278.958 115.957,287.178 116.051,289.825 110.862 C 291.548 107.484,291.682 96.156,290.044 92.334 C 288.618 89.007,283.840 87.095,280.313 88.440 M251.917 131.365 C 254.447 132.011,255.915 134.290,256.270 138.124 C 256.685 142.598,256.409 172.609,255.940 174.028 C 254.168 179.393,247.415 179.612,245.523 174.366 C 245.227 173.544,245.109 171.956,244.977 166.993 C 244.743 158.248,244.261 157.268,241.832 160.606 C 239.276 164.117,237.573 165.252,234.848 165.262 C 232.096 165.271,230.980 164.504,227.659 160.322 C 225.408 157.487,224.973 158.509,224.725 167.223 C 224.517 174.512,224.441 174.878,222.761 176.570 C 219.798 179.555,215.047 178.203,213.763 174.008 C 213.127 171.929,213.111 137.718,213.746 135.668 C 214.705 132.568,216.636 131.223,220.122 131.228 C 224.542 131.234,225.874 132.550,230.270 141.257 C 234.712 150.056,235.002 150.068,239.245 141.613 C 244.217 131.708,246.387 129.953,251.917 131.365 M326.532 131.571 C 333.476 133.188,337.606 138.111,335.562 142.334 C 334.196 145.155,331.174 145.567,326.681 143.544 C 322.003 141.437,318.574 141.962,318.574 144.784 C 318.574 146.782,319.506 147.565,325.408 150.525 C 333.969 154.819,336.815 158.351,336.826 164.692 C 336.843 173.852,329.544 179.518,319.087 178.461 C 309.986 177.542,303.724 171.894,306.181 166.820 C 307.626 163.835,310.454 163.631,315.694 166.133 C 320.520 168.437,323.949 168.194,324.451 165.514 C 324.815 163.574,323.160 162.036,317.999 159.515 C 309.281 155.256,306.123 151.503,306.098 145.371 C 306.056 135.024,315.108 128.910,326.532 131.571 M382.055 131.582 C 388.611 133.407,392.019 138.609,389.006 142.189 C 387.468 144.017,385.289 144.195,381.024 142.841 C 375.822 141.189,373.005 142.109,371.450 145.967 C 370.699 147.832,370.597 161.170,371.318 163.238 C 372.743 167.322,376.366 168.588,381.483 166.790 C 390.723 163.544,393.856 172.604,384.969 176.872 C 376.348 181.013,365.323 177.528,361.354 169.408 C 358.074 162.696,358.215 146.002,361.606 139.638 C 365.237 132.823,374.048 129.352,382.055 131.582 M270.574 131.586 C 271.635 131.881,273.141 133.191,273.709 134.314 C 274.554 135.986,274.640 137.298,274.645 148.545 C 274.650 159.921,274.772 161.887,275.590 163.789 C 277.411 168.022,284.143 168.719,286.990 164.970 C 288.505 162.974,288.509 162.932,288.662 148.936 C 288.798 136.467,288.808 136.266,289.325 134.970 C 291.284 130.056,297.875 130.244,299.622 135.264 C 300.194 136.908,300.294 161.445,299.741 164.462 C 298.083 173.508,291.657 178.488,281.639 178.492 C 270.772 178.497,264.464 172.854,263.374 162.151 C 262.924 157.736,263.159 136.584,263.673 135.237 C 264.798 132.287,267.655 130.776,270.574 131.586 M349.010 131.586 C 350.865 132.102,352.357 134.025,352.837 136.521 C 353.221 138.514,353.063 172.982,352.665 174.150 C 350.884 179.378,343.869 179.337,342.116 174.087 C 341.623 172.611,341.338 140.633,341.787 137.266 C 342.378 132.844,345.291 130.554,349.010 131.586 M244.213 189.564 C 249.400 192.137,245.023 196.437,238.124 195.546 C 233.694 194.974,232.183 191.630,235.482 189.699 C 237.227 188.677,242.268 188.599,244.213 189.564 M268.825 189.564 C 272.549 191.411,271.219 194.948,266.580 195.529 C 260.787 196.256,256.853 193.901,258.745 190.839 C 259.949 188.890,265.939 188.132,268.825 189.564 M292.037 189.149 C 294.955 189.761,296.271 191.814,294.993 193.763 C 293.302 196.344,284.596 196.246,283.244 193.631 C 281.523 190.303,286.190 187.924,292.037 189.149 M318.032 189.550 C 321.652 191.303,320.188 194.922,315.610 195.539 C 309.956 196.300,305.910 193.835,307.879 190.830 C 309.137 188.910,315.146 188.153,318.032 189.550 M342.553 189.611 C 346.962 191.768,344.448 195.562,338.585 195.600 C 334.097 195.630,332.145 194.647,332.145 192.356 C 332.145 189.229,338.401 187.579,342.553 189.611 M366.892 189.473 C 370.827 191.241,369.585 194.899,364.833 195.539 C 358.984 196.326,354.567 193.403,357.255 190.525 C 358.819 188.851,364.201 188.264,366.892 189.473 M220.064 189.526 C 221.167 190.027,221.965 191.140,221.965 192.179 C 221.965 195.942,214.435 196.532,213.224 192.865 C 212.321 190.127,216.690 187.994,220.064 189.526 M387.655 189.388 C 390.301 190.493,390.334 193.658,387.712 194.848 C 383.846 196.604,379.365 193.287,381.760 190.441 C 382.868 189.125,385.779 188.604,387.655 189.388 " stroke="none" fill="#ffffff" fill-rule="evenodd"></path><path id="path3" d="M95.227 8.214 C 77.035 9.117,56.720 14.484,42.093 22.252 C 13.305 37.539,2.352 58.026,7.935 86.141 C 13.385 113.579,22.171 135.273,38.538 161.702 C 39.855 163.829,48.459 175.960,50.120 178.033 C 53.368 182.086,61.254 191.433,63.026 193.329 C 88.780 220.902,101.002 227.240,117.738 221.704 C 136.283 215.569,168.228 180.429,186.657 145.890 C 196.930 126.636,205.381 103.425,208.043 87.149 C 209.491 78.296,209.551 77.546,209.401 70.234 L 209.264 63.600 207.212 57.537 C 204.923 50.775,204.921 50.772,202.376 46.525 C 192.316 29.742,173.012 18.754,141.881 12.092 C 126.643 8.830,110.247 7.467,95.227 8.214 M119.494 12.394 C 122.404 12.657,125.147 12.925,125.589 12.989 C 174.023 19.974,199.883 36.495,205.054 63.754 C 205.954 68.495,205.954 77.506,205.056 82.594 C 204.867 83.660,204.447 86.239,204.121 88.327 C 202.710 97.360,196.731 115.577,190.672 129.300 C 182.288 148.290,171.003 166.515,157.933 182.174 C 127.150 219.051,110.333 226.830,90.163 213.521 C 85.991 210.768,75.975 202.190,74.153 199.810 C 73.915 199.499,71.554 196.982,68.907 194.217 C 61.451 186.430,54.135 177.525,46.951 167.496 C 39.338 156.866,29.893 140.379,25.578 130.190 C 14.169 103.242,8.618 79.122,10.677 65.440 C 13.473 46.861,27.199 32.287,51.820 21.756 C 64.820 16.195,77.096 13.406,94.882 11.973 C 99.343 11.614,113.559 11.857,119.494 12.394 M214.848 59.041 C 213.467 59.544,211.723 61.314,211.389 62.553 C 210.065 67.469,220.510 69.521,222.911 64.817 C 224.897 60.925,219.768 57.252,214.848 59.041 M235.883 59.024 C 231.120 60.523,231.185 65.848,235.982 67.258 C 237.686 67.759,242.360 67.759,244.064 67.258 C 248.542 65.942,249.024 61.017,244.853 59.197 C 243.537 58.623,237.526 58.507,235.883 59.024 M261.009 58.905 C 255.650 60.167,255.526 65.943,260.829 67.297 C 267.637 69.034,273.819 65.859,271.932 61.593 C 270.842 59.129,265.567 57.831,261.009 58.905 M286.026 58.801 C 285.773 58.866,285.177 59.019,284.701 59.142 C 281.642 59.927,280.489 63.891,282.722 65.946 C 284.459 67.546,290.537 68.183,293.660 67.094 C 294.993 66.629,296.392 65.279,296.621 64.238 C 296.698 63.887,296.796 63.483,296.839 63.339 C 297.216 62.084,295.565 59.868,293.764 59.211 C 292.704 58.824,287.093 58.527,286.026 58.801 M310.002 58.893 C 305.277 60.072,304.692 65.393,309.100 67.094 C 310.479 67.626,316.777 67.698,318.191 67.198 C 322.253 65.762,322.415 60.921,318.459 59.198 C 317.393 58.734,311.493 58.521,310.002 58.893 M334.431 58.956 C 329.830 60.250,329.171 65.110,333.347 66.947 C 334.817 67.594,339.694 67.857,341.860 67.408 C 346.583 66.427,347.436 61.186,343.186 59.258 C 341.885 58.669,336.156 58.471,334.431 58.956 M359.012 58.964 C 354.379 60.264,353.796 65.032,358.030 66.984 C 359.972 67.879,366.045 67.776,367.923 66.816 C 371.534 64.969,371.356 60.582,367.615 59.215 C 366.174 58.689,360.573 58.526,359.012 58.964 M382.898 58.880 C 379.605 59.920,378.626 63.748,381.061 66.060 C 383.506 68.383,388.901 67.881,390.482 65.184 C 392.732 61.344,387.875 57.307,382.898 58.880 M219.746 61.132 C 221.224 61.995,221.224 64.059,219.746 64.919 C 216.732 66.673,212.796 64.096,214.776 61.665 C 215.713 60.515,218.228 60.245,219.746 61.132 M243.685 61.076 C 245.798 62.079,245.767 64.201,243.626 65.157 C 241.236 66.224,235.855 65.627,235.097 64.212 C 234.357 62.828,235.373 61.117,237.107 60.828 C 237.572 60.750,238.056 60.645,238.183 60.593 C 238.793 60.344,242.903 60.705,243.685 61.076 M268.159 61.080 C 269.791 61.733,270.249 63.159,269.218 64.383 C 267.739 66.140,261.588 66.143,259.952 64.387 C 257.530 61.787,263.706 59.298,268.159 61.080 M292.710 61.167 C 294.806 62.094,294.763 64.205,292.629 65.149 C 290.378 66.144,285.798 65.712,284.564 64.387 C 282.098 61.740,288.387 59.255,292.710 61.167 M317.236 61.024 C 319.382 61.921,319.379 64.200,317.232 65.156 C 313.327 66.893,307.129 64.735,308.781 62.214 C 309.829 60.615,314.637 59.938,317.236 61.024 M340.682 60.727 C 342.907 61.144,343.933 62.352,343.316 63.829 C 342.380 66.069,335.405 66.461,333.648 64.372 C 331.542 61.870,335.589 59.772,340.682 60.727 M366.502 61.147 C 368.130 61.868,368.497 63.122,367.445 64.372 C 365.950 66.148,359.761 66.156,358.269 64.383 C 355.957 61.635,362.125 59.211,366.502 61.147 M387.479 61.194 C 388.865 62.051,389.008 63.910,387.752 64.733 C 386.060 65.841,384.053 65.756,382.820 64.522 C 380.426 62.128,384.399 59.290,387.479 61.194 M103.048 67.285 C 93.225 68.661,86.627 71.423,78.436 77.590 C 72.320 82.194,65.381 91.233,62.586 98.236 C 53.073 122.075,57.997 143.679,77.099 161.904 C 79.985 164.658,80.042 164.917,80.048 175.388 C 80.056 188.164,81.385 190.465,89.164 191.176 C 93.323 191.556,117.805 191.307,119.264 190.869 C 122.829 189.801,124.734 187.680,125.501 183.928 C 126.341 179.818,126.516 179.727,132.106 180.481 C 143.607 182.034,150.582 179.930,153.715 173.961 C 155.419 170.716,155.621 169.238,155.932 157.677 C 156.174 148.678,156.194 148.637,161.297 146.382 C 166.266 144.186,167.786 142.334,167.791 138.470 C 167.794 136.117,167.752 135.989,164.315 127.697 C 160.776 119.161,160.717 118.955,159.855 112.156 C 157.075 90.219,140.035 71.836,118.804 67.870 C 111.971 66.593,108.818 66.476,103.048 67.285 M114.549 70.717 C 132.111 72.822,148.415 86.165,154.054 103.048 C 155.456 107.244,155.662 108.194,156.303 113.399 C 157.046 119.429,157.284 120.264,160.482 128.005 C 163.774 135.972,164.002 136.632,164.002 138.173 C 164.002 140.409,162.762 141.775,159.440 143.195 C 152.810 146.031,152.444 146.878,152.053 160.322 C 151.813 168.546,151.638 169.898,150.534 172.077 C 148.215 176.653,143.071 178.017,132.835 176.769 C 124.672 175.774,123.055 176.533,122.057 181.831 C 121.602 184.243,121.401 184.731,120.410 185.828 C 118.784 187.627,119.264 187.579,103.048 187.579 C 82.377 187.579,83.939 188.658,83.716 174.238 C 83.533 162.418,83.752 163.076,78.298 157.907 C 67.716 147.877,62.258 136.291,61.717 122.710 C 60.480 91.682,85.341 67.215,114.549 70.717 M280.731 78.232 C 273.346 78.867,267.561 83.797,265.919 90.857 C 264.119 98.593,264.786 110.435,267.318 115.699 C 273.209 127.947,293.848 127.396,299.400 114.841 C 301.767 109.490,302.007 95.195,299.835 88.949 C 297.235 81.472,290.033 77.432,280.731 78.232 M321.877 78.531 C 312.115 80.390,308.525 85.999,308.289 99.763 C 308.062 112.961,309.672 117.828,315.542 121.684 C 323.615 126.987,337.665 123.964,337.665 116.925 C 337.665 113.556,334.819 112.468,330.036 114.008 C 321.387 116.793,318.360 113.556,318.348 101.512 C 318.337 89.559,321.199 86.044,328.925 88.524 C 333.898 90.120,335.602 89.940,337.142 87.655 C 340.514 82.652,330.781 76.835,321.877 78.531 M369.424 78.695 C 367.373 79.307,366.146 80.626,361.400 87.316 C 355.521 95.604,354.401 95.537,354.022 86.875 C 353.743 80.471,352.705 78.781,349.051 78.781 C 346.881 78.781,345.819 79.436,344.876 81.357 L 344.221 82.691 344.221 101.323 L 344.221 119.954 344.856 121.247 C 346.651 124.903,351.581 124.910,353.257 121.260 C 353.805 120.066,353.871 119.592,354.028 115.745 C 354.234 110.692,354.487 109.878,355.885 109.762 C 357.060 109.665,357.959 110.536,362.786 116.443 C 366.825 121.385,368.136 122.731,369.577 123.414 C 373.843 125.439,377.802 121.313,375.765 116.964 C 375.103 115.549,374.440 114.678,369.771 109.081 C 363.054 101.030,363.059 101.593,369.636 92.784 C 373.843 87.148,374.856 85.435,375.076 83.583 C 375.467 80.283,372.552 77.762,369.424 78.695 M232.317 78.985 C 230.064 79.485,228.720 80.497,227.856 82.346 C 227.377 83.371,227.372 83.566,227.372 101.553 L 227.372 119.724 227.901 120.871 C 229.751 124.885,234.615 125.107,236.557 121.266 C 237.072 120.248,237.373 117.416,237.381 113.514 C 237.390 109.095,237.976 107.858,240.231 107.492 C 242.092 107.190,243.984 108.567,245.254 111.150 C 245.582 111.817,246.832 114.382,248.031 116.849 C 251.278 123.528,253.558 125.239,256.925 123.521 C 260.413 121.742,260.299 119.178,256.364 110.915 C 253.599 105.109,253.591 104.476,256.246 101.208 C 261.408 94.854,259.609 84.723,252.664 81.037 C 248.788 78.980,237.481 77.840,232.317 78.985 M287.867 82.472 C 292.389 83.698,295.671 87.133,296.886 91.915 C 297.489 94.284,297.493 108.383,296.891 110.725 C 295.198 117.324,290.557 120.633,283.036 120.605 C 274.473 120.573,270.099 116.606,269.127 107.993 C 268.598 103.301,268.905 94.402,269.706 91.202 C 271.483 84.107,279.566 80.221,287.867 82.472 M328.874 82.464 C 330.643 82.881,332.047 83.573,332.378 84.192 C 332.939 85.241,331.895 85.384,329.466 84.592 C 323.185 82.542,317.265 85.529,315.355 91.711 C 314.036 95.982,314.115 107.175,315.494 111.303 C 317.504 117.320,323.026 120.147,329.247 118.344 C 332.026 117.539,332.844 117.583,332.347 118.511 C 331.696 119.727,327.546 120.700,324.209 120.419 C 314.930 119.635,311.903 114.939,311.903 101.323 C 311.903 90.746,313.610 86.116,318.401 83.697 C 321.172 82.299,325.841 81.749,328.874 82.464 M238.933 82.849 L 241.151 83.121 239.470 83.635 C 234.955 85.013,233.516 87.575,233.757 93.806 C 233.941 98.560,234.817 100.261,237.874 101.801 C 239.687 102.714,239.685 102.805,237.830 103.742 C 234.490 105.428,233.896 106.839,233.714 113.525 C 233.603 117.625,233.520 118.461,233.175 118.987 C 232.654 119.780,231.980 119.780,231.460 118.987 C 230.820 118.009,230.831 84.849,231.472 83.870 C 232.321 82.575,234.396 82.291,238.933 82.849 M248.294 83.388 C 255.641 85.302,258.026 93.720,252.789 99.252 C 249.287 102.952,249.291 104.874,252.814 112.183 C 255.445 117.641,255.708 118.497,254.978 119.227 C 253.990 120.215,253.236 119.235,250.506 113.423 C 247.170 106.321,246.513 105.442,243.364 103.856 C 241.257 102.795,241.280 102.749,244.451 101.762 C 249.227 100.275,250.517 99.410,251.709 96.894 C 254.340 91.339,250.816 85.527,243.797 83.846 C 242.860 83.621,241.995 83.347,241.875 83.237 C 241.488 82.882,246.835 83.008,248.294 83.388 M350.011 83.785 C 350.110 83.942,350.257 86.404,350.338 89.254 C 350.560 97.117,351.539 99.367,354.734 99.367 C 357.334 99.367,358.392 98.233,366.058 87.231 C 368.777 83.330,370.543 82.024,370.744 83.766 C 370.856 84.734,370.139 85.878,365.922 91.472 C 358.633 101.140,358.670 101.762,367.099 111.673 C 371.266 116.573,372.391 118.303,371.948 119.130 C 371.143 120.634,370.195 119.740,362.564 110.271 C 357.830 104.397,355.862 103.237,353.058 104.667 C 351.075 105.679,350.558 107.424,350.356 113.777 C 350.172 119.570,349.565 121.029,348.244 118.861 C 347.715 117.995,347.512 85.644,348.026 84.259 C 348.471 83.062,349.413 82.837,350.011 83.785 M279.992 84.527 C 277.005 85.366,274.147 87.681,272.944 90.237 C 270.550 95.320,270.552 107.390,272.948 112.428 C 276.789 120.505,289.227 120.618,293.167 112.611 C 295.817 107.226,295.403 93.340,292.460 88.907 C 289.997 85.196,284.492 83.263,279.992 84.527 M244.542 88.320 C 251.456 90.464,249.352 98.024,241.823 98.085 C 238.323 98.114,237.493 97.124,237.493 92.927 C 237.493 88.234,239.671 86.810,244.542 88.320 M286.731 88.840 C 290.224 90.642,291.090 93.170,291.082 101.553 C 291.076 107.404,290.891 108.772,289.825 110.862 C 287.178 116.051,278.958 115.957,276.286 110.706 C 274.187 106.581,274.596 94.068,276.930 91.005 C 279.081 88.182,283.544 87.197,286.731 88.840 M248.282 131.112 C 244.662 131.849,243.425 133.286,239.245 141.613 C 235.002 150.068,234.712 150.056,230.270 141.257 C 225.874 132.550,224.542 131.234,220.122 131.228 C 216.636 131.223,214.705 132.568,213.746 135.668 C 213.111 137.718,213.127 171.929,213.763 174.008 C 215.047 178.203,219.798 179.555,222.761 176.570 C 224.441 174.878,224.517 174.512,224.725 167.223 C 224.973 158.509,225.408 157.487,227.659 160.322 C 230.980 164.504,232.096 165.271,234.848 165.262 C 237.573 165.252,239.276 164.117,241.832 160.606 C 244.261 157.268,244.743 158.248,244.977 166.993 C 245.109 171.956,245.227 173.544,245.523 174.366 C 247.415 179.612,254.168 179.393,255.940 174.028 C 256.409 172.609,256.685 142.598,256.270 138.124 C 255.789 132.927,252.698 130.214,248.282 131.112 M318.863 131.121 C 311.037 132.090,306.066 137.639,306.098 145.371 C 306.123 151.503,309.281 155.256,317.999 159.515 C 323.160 162.036,324.815 163.574,324.451 165.514 C 323.949 168.194,320.520 168.437,315.694 166.133 C 310.454 163.631,307.626 163.835,306.181 166.820 C 303.724 171.894,309.986 177.542,319.087 178.461 C 329.544 179.518,336.843 173.852,336.826 164.692 C 336.815 158.351,333.969 154.819,325.408 150.525 C 319.506 147.565,318.574 146.782,318.574 144.784 C 318.574 141.962,322.003 141.437,326.681 143.544 C 331.174 145.567,334.196 145.155,335.562 142.334 C 338.504 136.257,328.987 129.867,318.863 131.121 M373.966 131.209 C 362.141 133.304,357.653 142.422,359.294 161.012 C 360.295 172.338,366.577 178.477,377.180 178.490 C 385.202 178.501,391.478 173.792,389.883 168.960 C 388.879 165.918,386.048 165.187,381.483 166.790 C 376.366 168.588,372.743 167.322,371.318 163.238 C 370.597 161.170,370.699 147.832,371.450 145.967 C 373.005 142.109,375.822 141.189,381.024 142.841 C 386.115 144.457,388.850 143.775,389.888 140.630 C 391.729 135.051,382.637 129.672,373.966 131.209 M266.689 131.887 C 265.346 132.513,264.246 133.734,263.673 135.237 C 263.159 136.584,262.924 157.736,263.374 162.151 C 264.464 172.854,270.772 178.497,281.639 178.492 C 291.657 178.488,298.083 173.508,299.741 164.462 C 300.294 161.445,300.194 136.908,299.622 135.264 C 297.875 130.244,291.284 130.056,289.325 134.970 C 288.808 136.266,288.798 136.467,288.662 148.936 C 288.509 162.932,288.505 162.974,286.990 164.970 C 284.143 168.719,277.411 168.022,275.590 163.789 C 274.772 161.887,274.650 159.921,274.645 148.545 C 274.642 141.322,274.552 137.156,274.382 136.354 C 273.520 132.288,270.097 130.301,266.689 131.887 M345.256 131.819 C 343.209 132.747,342.174 134.372,341.787 137.266 C 341.338 140.633,341.623 172.611,342.116 174.087 C 343.869 179.337,350.884 179.378,352.665 174.150 C 353.063 172.982,353.221 138.514,352.837 136.521 C 352.046 132.410,348.628 130.290,345.256 131.819 M222.597 133.909 C 224.295 134.710,225.232 136.095,228.648 142.854 C 232.309 150.097,233.077 151.121,234.848 151.121 C 236.619 151.121,237.386 150.097,241.047 142.854 C 245.268 134.502,246.295 133.336,249.454 133.307 C 251.751 133.287,253.338 134.454,253.935 136.603 C 254.270 137.806,254.248 171.874,253.913 173.083 C 253.009 176.338,249.165 176.727,247.779 173.704 L 247.181 172.398 247.026 163.887 C 246.932 158.736,246.770 155.069,246.617 154.597 C 245.636 151.592,243.371 152.750,240.828 157.556 C 236.786 165.194,232.989 165.123,228.755 157.332 C 226.643 153.446,225.634 152.433,224.425 152.984 C 223.011 153.628,222.661 156.025,222.658 165.084 C 222.656 174.554,221.779 176.674,218.257 175.725 C 215.501 174.983,215.483 174.843,215.569 154.105 L 215.641 136.733 216.226 135.596 C 217.381 133.352,219.965 132.668,222.597 133.909 M326.509 133.748 C 331.622 135.119,334.882 138.676,333.371 141.235 C 332.439 142.812,330.503 142.906,327.430 141.523 C 322.428 139.273,318.911 139.498,316.958 142.195 C 314.484 145.611,316.484 148.514,323.762 152.067 C 328.213 154.240,329.855 155.274,331.492 156.938 C 336.820 162.351,335.332 171.728,328.644 174.891 C 320.973 178.519,307.993 174.940,307.993 169.197 C 307.993 166.509,310.600 166.043,314.618 168.015 C 320.485 170.895,324.855 170.568,326.414 167.134 C 328.005 163.632,326.005 161.088,318.919 157.601 C 309.810 153.119,307.113 149.151,308.554 142.353 C 310.055 135.270,317.996 131.465,326.509 133.748 M382.059 133.838 C 386.635 135.298,388.917 138.559,386.826 140.650 C 385.754 141.722,384.767 141.721,381.333 140.644 C 374.827 138.605,370.651 140.615,369.000 146.582 C 368.406 148.725,368.413 160.902,369.009 163.058 C 370.658 169.027,375.172 171.105,381.829 168.960 C 385.926 167.639,387.779 168.285,387.523 170.945 C 386.917 177.250,372.323 178.322,366.229 172.509 C 362.532 168.984,361.597 165.844,361.423 156.368 C 361.233 146.044,361.960 142.282,364.877 138.492 C 368.281 134.070,376.126 131.945,382.059 133.838 M270.761 134.352 C 272.444 135.550,272.440 135.514,272.591 149.511 C 272.736 162.861,272.750 163.037,273.925 165.334 C 276.838 171.033,286.491 170.999,289.415 165.279 C 290.555 163.050,290.575 162.807,290.720 149.511 L 290.857 136.975 291.432 135.837 C 292.813 133.104,296.042 132.982,297.291 135.615 C 298.324 137.792,298.444 160.395,297.447 164.922 C 295.792 172.429,290.429 176.282,281.656 176.265 C 274.535 176.252,269.800 173.811,267.332 168.882 C 265.570 165.362,265.555 165.196,265.555 149.971 L 265.555 136.515 266.130 135.503 C 267.152 133.704,269.153 133.207,270.761 134.352 M349.161 134.279 C 349.480 134.510,350.000 135.211,350.316 135.837 L 350.891 136.975 350.891 154.802 L 350.891 172.628 350.389 173.714 C 349.155 176.387,345.778 176.421,344.451 173.775 C 344.002 172.881,343.991 172.399,343.991 154.687 L 343.991 136.515 344.548 135.542 C 345.560 133.775,347.669 133.198,349.161 134.279 M237.183 189.076 C 233.592 189.836,232.603 193.204,235.476 194.887 C 238.147 196.451,244.460 195.719,245.830 193.686 C 247.896 190.621,242.777 187.892,237.183 189.076 M261.821 189.072 C 258.680 189.740,257.304 192.208,259.038 194.064 C 261.262 196.445,268.750 196.197,270.442 193.686 C 272.502 190.628,267.382 187.888,261.821 189.072 M286.141 189.160 C 283.445 189.750,282.217 191.645,283.244 193.631 C 284.596 196.246,293.302 196.344,294.993 193.763 C 297.130 190.502,292.059 187.864,286.141 189.160 M310.753 189.144 C 307.932 189.797,306.588 192.042,307.923 193.870 C 309.699 196.303,317.312 196.319,319.352 193.895 C 321.977 190.775,316.582 187.794,310.753 189.144 M335.440 189.069 C 332.309 189.738,331.003 192.428,332.928 194.244 C 335.198 196.385,342.689 196.082,344.104 193.792 C 346.085 190.588,341.088 187.864,335.440 189.069 M360.052 189.069 C 354.787 190.193,355.584 194.885,361.154 195.559 C 365.877 196.130,369.063 194.815,369.063 192.294 C 369.063 189.690,364.610 188.096,360.052 189.069 M215.181 189.399 C 213.698 190.058,212.815 191.623,213.224 192.865 C 214.435 196.532,221.965 195.942,221.965 192.179 C 221.965 189.810,217.955 188.166,215.181 189.399 M383.082 189.398 C 380.483 190.530,380.479 193.669,383.076 194.848 C 386.943 196.605,391.422 193.287,389.027 190.441 C 387.923 189.128,384.914 188.600,383.082 189.398 " stroke="none" fill="#fd7b8e" fill-rule="evenodd"></path><path id="path4" d="M94.882 11.973 C 77.096 13.406,64.820 16.195,51.820 21.756 C 27.199 32.287,13.473 46.861,10.677 65.440 C 8.618 79.122,14.169 103.242,25.578 130.190 C 28.611 137.352,35.629 150.222,42.033 160.365 C 43.482 162.660,49.152 170.658,52.169 174.663 C 55.756 179.425,64.290 189.395,68.907 194.217 C 71.554 196.982,73.915 199.499,74.153 199.810 C 74.961 200.865,81.988 207.292,84.873 209.614 C 103.090 224.275,116.766 223.072,136.473 205.075 C 158.468 184.988,178.372 157.161,190.672 129.300 C 196.731 115.577,202.710 97.360,204.121 88.327 C 204.447 86.239,204.867 83.660,205.056 82.594 C 205.954 77.506,205.954 68.495,205.054 63.754 C 199.883 36.495,174.023 19.974,125.589 12.989 C 119.129 12.057,101.203 11.464,94.882 11.973 M92.720 29.382 C 93.836 30.321,101.065 47.750,104.215 57.095 C 105.445 60.746,104.303 62.499,99.978 63.597 C 94.267 65.045,92.195 64.331,91.553 60.692 C 90.676 55.716,89.792 30.952,90.449 29.751 C 91.089 28.582,91.659 28.489,92.720 29.382 M130.115 29.784 C 130.836 30.289,131.186 32.078,131.005 34.333 C 130.725 37.810,129.266 53.893,128.913 57.389 C 128.136 65.094,126.885 66.057,120.103 64.171 C 113.815 62.421,113.820 61.987,120.295 46.924 C 126.539 32.398,127.648 30.172,128.891 29.670 C 129.566 29.398,129.564 29.398,130.115 29.784 M62.910 41.581 C 63.995 42.132,75.821 54.772,82.371 62.382 C 85.729 66.283,85.255 68.169,80.079 71.497 C 75.748 74.283,73.866 73.880,71.782 69.722 C 70.575 67.315,62.747 49.917,61.482 46.830 C 59.505 42.007,60.020 40.116,62.910 41.581 M39.857 64.426 C 41.252 64.896,53.135 70.598,61.649 74.883 C 68.641 78.401,69.321 79.764,66.339 84.275 C 63.284 88.895,61.583 89.835,58.978 88.340 C 56.980 87.195,38.353 69.065,36.997 66.947 C 35.433 64.504,36.719 63.369,39.857 64.426 M114.363 67.158 C 126.288 68.925,134.323 72.524,142.651 79.830 C 152.377 88.361,158.235 99.368,159.855 112.156 C 160.717 118.955,160.776 119.161,164.315 127.697 C 167.752 135.989,167.794 136.117,167.791 138.470 C 167.786 142.334,166.266 144.186,161.297 146.382 C 156.194 148.637,156.174 148.678,155.932 157.677 C 155.621 169.238,155.419 170.716,153.715 173.961 C 150.582 179.930,143.607 182.034,132.106 180.481 C 126.516 179.727,126.341 179.818,125.501 183.928 C 124.734 187.680,122.829 189.801,119.264 190.869 C 117.805 191.307,93.323 191.556,89.164 191.176 C 81.385 190.465,80.056 188.164,80.048 175.388 C 80.042 164.917,79.985 164.658,77.099 161.904 C 61.466 146.988,55.406 130.332,58.794 111.593 C 62.132 93.131,71.628 80.130,87.982 71.631 C 95.158 67.901,106.452 65.986,114.363 67.158 M279.481 82.222 C 274.603 83.150,270.862 86.586,269.706 91.202 C 268.589 95.662,268.585 106.999,269.698 111.395 C 271.227 117.432,275.783 120.578,283.036 120.605 C 290.557 120.633,295.198 117.324,296.891 110.725 C 297.493 108.383,297.489 94.284,296.886 91.915 C 295.002 84.505,287.996 80.603,279.481 82.222 M321.790 82.562 C 314.411 84.119,311.903 88.878,311.903 101.323 C 311.903 114.939,314.930 119.635,324.209 120.419 C 327.546 120.700,331.696 119.727,332.347 118.511 C 332.844 117.583,332.026 117.539,329.247 118.344 C 318.484 121.463,312.904 112.709,314.673 95.476 C 315.582 86.617,321.755 82.075,329.466 84.592 C 331.895 85.384,332.939 85.241,332.378 84.192 C 331.453 82.463,326.137 81.645,321.790 82.562 M232.622 82.912 C 230.962 83.634,231.052 82.571,231.052 101.438 C 231.052 119.864,231.035 119.609,232.317 119.609 C 233.365 119.609,233.573 118.703,233.714 113.525 C 233.896 106.839,234.490 105.428,237.830 103.742 C 239.685 102.805,239.687 102.714,237.874 101.801 C 234.817 100.261,233.941 98.560,233.757 93.806 C 233.516 87.575,234.955 85.013,239.470 83.635 L 241.151 83.121 238.933 82.849 C 236.028 82.492,233.531 82.517,232.622 82.912 M241.875 83.237 C 241.995 83.347,242.860 83.621,243.797 83.846 C 250.816 85.527,254.340 91.339,251.709 96.894 C 250.517 99.410,249.227 100.275,244.451 101.762 C 241.280 102.749,241.257 102.795,243.364 103.856 C 246.513 105.442,247.170 106.321,250.506 113.423 C 253.236 119.235,253.990 120.215,254.978 119.227 C 255.708 118.497,255.445 117.641,252.814 112.183 C 249.291 104.874,249.287 102.952,252.789 99.252 C 258.026 93.720,255.641 85.302,248.294 83.388 C 246.835 83.008,241.488 82.882,241.875 83.237 M348.633 83.333 C 347.822 83.950,347.786 84.713,347.787 101.510 C 347.788 119.431,347.800 119.609,349.012 119.609 C 350.021 119.609,350.194 118.857,350.356 113.777 C 350.558 107.424,351.075 105.679,353.058 104.667 C 355.862 103.237,357.830 104.397,362.564 110.271 C 370.195 119.740,371.143 120.634,371.948 119.130 C 372.391 118.303,371.266 116.573,367.099 111.673 C 358.670 101.762,358.633 101.140,365.922 91.472 C 370.139 85.878,370.856 84.734,370.744 83.766 C 370.543 82.024,368.777 83.330,366.058 87.231 C 358.392 98.233,357.334 99.367,354.734 99.367 C 351.539 99.367,350.560 97.117,350.338 89.254 C 350.257 86.404,350.110 83.942,350.011 83.785 C 349.673 83.249,349.024 83.036,348.633 83.333 M287.524 84.961 C 293.239 87.291,295.199 92.290,294.799 103.517 C 294.566 110.045,293.637 113.036,291.098 115.438 C 285.553 120.682,276.130 119.119,272.948 112.428 C 270.552 107.390,270.550 95.320,272.944 90.237 C 275.285 85.266,282.165 82.776,287.524 84.961 M29.442 91.677 C 38.640 92.741,54.573 95.207,55.624 95.729 C 57.946 96.882,58.274 98.900,56.850 103.279 C 54.955 109.104,53.617 109.451,46.361 105.999 C 26.724 96.659,22.631 94.360,22.812 92.777 C 22.976 91.338,24.431 91.097,29.442 91.677 " stroke="none" fill="#fc5b73" fill-rule="evenodd"></path></g></svg>